<?xml version="1.0" encoding="utf-8"?>
<!-- Generator: Adobe Illustrator 25.2.3, SVG Export Plug-In . SVG Version: 6.00 Build 0)  -->
<svg version="1.1" id="图层_1" xmlns="http://www.w3.org/2000/svg" xmlns:xlink="http://www.w3.org/1999/xlink" x="0px" y="0px"
	 viewBox="0 0 770.5 319.9" style="enable-background:new 0 0 770.5 319.9;" xml:space="preserve">
<style type="text/css">
	.st0{fill:none;}
	.st1{fill:url(#SVGID_1_);}
	.st2{fill:#FFFFFF;}
</style>
<rect y="2" class="st0" width="1920" height="1080"/>
<g>
	<g>
		<g>
			<g>
				
					<linearGradient id="SVGID_1_" gradientUnits="userSpaceOnUse" x1="51.7" y1="161.7" x2="293.8" y2="161.7" gradientTransform="matrix(1 0 0 -1 0 322)">
					<stop  offset="1.642627e-03" style="stop-color:#FFD478"/>
					<stop  offset="1" style="stop-color:#34A0D6"/>
				</linearGradient>
				<path class="st1" d="M199.6,105.3l-37.9,162.2L51.7,185l5.5-71.5L139.8,53l54.5,45.4l5.9,4.9L199.6,105.3z M205.8,108l-1.2-0.5
					l-37.4,160.1l93.6-22l-16.5-121.1L205.8,108z M262.3,116.2l-12.5,8.3l15.8,116.2l28.2-66.6L262.3,116.2z M277.4,102.5l-11,11
					l11,20.2V102.5z"/>
			</g>
		</g>
		<path class="st2" d="M355.1,225.4c0-2,1-3.5,3-4.6c0.9-0.9,2.1-1.4,3.7-1.4c1.8,0,3.5,0.8,5,2.3c9,11.9,21,17.9,36,17.9
			c7.3,0,13.7-1.7,19.1-5.2c5.4-3.4,8.1-8.4,8.1-15c0-6.4-2.5-11.2-7.6-14.4s-12.1-6-21.1-8.2c-12.7-3.2-22.6-7.4-29.8-12.5
			c-7.2-5.1-10.8-12.6-10.8-22.6c0-6.3,1.8-11.9,5.3-16.8c3.5-5,8.3-8.8,14.3-11.6s12.9-4.1,20.5-4.1c6.6,0,13.2,1.3,19.8,3.8
			c6.6,2.5,12.3,6.5,17.1,12c1.4,1.1,2.1,2.6,2.1,4.6c0,1.8-0.8,3.4-2.3,4.8c-1.1,0.9-2.4,1.4-4.1,1.4c-1.5,0-2.9-0.6-4.1-1.8
			c-3.7-4.1-8-7.3-13.1-9.4c-5-2.1-10.5-3.2-16.3-3.2c-7.2,0-13.3,1.7-18.4,5c-5.1,3.4-7.7,8.4-7.7,15.1c0.3,6.1,3.1,10.8,8.4,14
			s13,6.1,23.3,8.7c7.9,2,14.5,4.2,19.7,6.6c5.2,2.4,9.4,5.9,12.7,10.3c3.3,4.4,4.9,10.3,4.9,17.6c0,9.9-4,17.8-11.9,23.7
			s-17.8,8.8-29.6,8.8c-18.6,0-33.5-6.9-44.4-20.9C355.7,228.5,355.1,226.8,355.1,225.4z M487.5,112.3c-1.7-1.4-2.5-3.5-2.5-6.3
			v-2.3c0-2.8,0.9-4.8,2.6-6.3c1.8-1.4,4.2-2.2,7.2-2.2c6.1,0,9.2,2.8,9.2,8.5v2.3c0,2.8-0.8,4.9-2.4,6.3c-1.6,1.5-3.9,2.2-7,2.2
			C491.6,114.5,489.2,113.8,487.5,112.3z M499.5,247c-1.3,1.3-2.9,1.9-4.9,1.9s-3.6-0.6-4.9-1.9c-1.3-1.3-1.9-2.9-1.9-4.9V136.7
			c0-2,0.6-3.6,1.9-4.9c1.3-1.3,2.9-1.9,4.9-1.9s3.6,0.7,4.9,1.9c1.3,1.3,1.9,2.9,1.9,4.9v105.4C501.5,244.1,500.8,245.7,499.5,247z
			 M567.6,247c-1.3,1.3-2.9,1.9-4.9,1.9s-3.6-0.6-4.9-1.9c-1.3-1.3-1.9-2.9-1.9-4.9V86.3c0-2,0.7-3.6,1.9-4.9
			c1.3-1.3,2.9-1.9,4.9-1.9s3.6,0.7,4.9,1.9c1.3,1.3,1.9,2.9,1.9,4.9v155.8C569.5,244.1,568.9,245.7,567.6,247z M719.2,242.1
			c0,2-0.8,3.6-2.4,4.9c-1.6,1.3-3.1,1.9-4.5,1.9c-2,0-3.7-0.8-5-2.5l-50.6-53.6l-17.2,14.7v34.6c0,2-0.7,3.6-1.9,4.9
			c-1.3,1.3-2.9,1.9-4.9,1.9s-3.6-0.6-4.9-1.9c-1.3-1.3-1.9-2.9-1.9-4.9V86.3c0-2,0.7-3.6,1.9-4.9c1.3-1.3,2.9-1.9,4.9-1.9
			s3.6,0.7,4.9,1.9c1.3,1.3,1.9,2.9,1.9,4.9v104.5l66.2-57c1.4-1.5,3-2.3,4.8-2.3c1.7,0,3.2,0.7,4.6,2.2c1.4,1.5,2.1,3,2.1,4.7
			c0,1.8-0.8,3.6-2.5,5.3l-47.2,40.1l49.7,53.2C718.5,238.4,719.2,240.1,719.2,242.1z"/>
	</g>
</g>
</svg>
